<?xml version="1.0" encoding="UTF-8" standalone="no"?>
<!DOCTYPE svg PUBLIC "-//W3C//DTD SVG 1.1//EN" "http://www.w3.org/Graphics/SVG/1.1/DTD/svg11.dtd">
<svg width="100%" height="100%" viewBox="0 0 100 100" version="1.1" xmlns="http://www.w3.org/2000/svg" xmlns:xlink="http://www.w3.org/1999/xlink" xml:space="preserve" xmlns:serif="http://www.serif.com/" style="fill-rule:evenodd;clip-rule:evenodd;stroke-linecap:round;stroke-linejoin:round;stroke-miterlimit:1.5;">
    <g transform="matrix(1,0,0,1,5.77662,0.821937)">
        <g>
            <g>
                <path d="M37.398,73.886C45.213,68.51 53.897,60.043 57.049,48.41L64.085,48.41L64.085,68.94C64.085,71.672 61.87,73.886 59.138,73.886C51.423,73.886 37.398,73.886 37.398,73.886Z" style="fill:rgb(0,140,175);"/>
                <path d="M41.255,73.886C49.071,68.51 58.134,60.043 61.286,48.41L64.085,48.41L64.085,68.94C64.085,71.672 61.87,73.886 59.138,73.886C52.425,73.886 41.255,73.886 41.255,73.886Z" style="fill:rgb(0,104,130);"/>
            </g>
            <g>
                <path d="M23.886,43.366C23.886,43.366 23.886,43.558 64.759,43.366C67.563,43.353 67.744,48.095 64.759,48.139C23.954,48.748 23.949,48.139 23.949,48.139C21.06,48.139 20.997,43.366 23.886,43.366Z" style="fill:none;stroke:rgb(225,228,222);stroke-width:2px;"/>
                <path d="M24.327,48.41L24.327,67.935C24.327,69.513 24.954,71.027 26.07,72.143C27.186,73.259 28.7,73.886 30.278,73.886C37.787,73.886 50.625,73.886 58.134,73.886C59.712,73.886 61.226,73.259 62.342,72.143C63.458,71.027 64.085,69.513 64.085,67.935C64.085,60.406 64.085,48.41 64.085,48.41L24.327,48.41Z" style="fill:none;stroke:rgb(225,228,222);stroke-width:2px;"/>
                <path d="M24.327,52.213C24.327,52.213 22.637,52.23 21.111,52.245C19.778,52.258 18.705,53.342 18.705,54.674C18.705,55.685 18.705,56.86 18.705,57.873C18.705,59.215 19.793,60.303 21.135,60.303C22.655,60.303 24.327,60.303 24.327,60.303" style="fill:none;stroke:rgb(225,228,222);stroke-width:2px;"/>
                <g transform="matrix(-1,0,0,1,88.4468,0)">
                    <path d="M24.327,52.213C24.327,52.213 22.637,52.23 21.111,52.245C19.778,52.258 18.705,53.342 18.705,54.674C18.705,55.685 18.705,56.86 18.705,57.873C18.705,59.215 19.793,60.303 21.135,60.303C22.655,60.303 24.327,60.303 24.327,60.303" style="fill:none;stroke:rgb(225,228,222);stroke-width:2px;"/>
                </g>
                <g transform="matrix(0.987287,0.0138642,0.0138642,0.98488,-7.72571,-5.67089)">
                    <path d="M60.875,48.41L76.045,31.866" style="fill:none;stroke:rgb(225,228,222);stroke-width:3px;"/>
                </g>
            </g>
        </g>
        <g>
            <path d="M34.269,29.287C34.285,31.723 34.52,33.411 32.293,34.191C29.175,35.283 28.921,37.269 29.303,39.454" style="fill:none;stroke:rgb(225,228,222);stroke-width:2px;"/>
            <g transform="matrix(1,0,0,1,15.2899,0.0196446)">
                <path d="M34.269,29.287C34.285,31.723 34.52,33.411 32.293,34.191C29.175,35.283 28.921,37.269 29.303,39.454" style="fill:none;stroke:rgb(225,228,222);stroke-width:2px;"/>
            </g>
            <g transform="matrix(1,0,0,1,8.08363,-0.330642)">
                <path d="M37.032,24.801C37.414,27.521 36.61,30.748 33.723,32.012C30.243,33.535 28.859,35.157 29.303,39.454" style="fill:none;stroke:rgb(225,228,222);stroke-width:2px;"/>
            </g>
        </g>
        <g transform="matrix(1,0,0,1,0.332188,0.123457)">
            <path d="M30.068,43.366C30.068,43.366 30.04,49.916 30.025,53.533C30.023,54.15 30.266,54.743 30.702,55.181C31.137,55.618 31.729,55.864 32.347,55.864C32.799,55.864 33.273,55.864 33.726,55.864C35.008,55.864 36.047,54.825 36.047,53.543C36.047,52.498 36.047,51.28 36.047,50.293C36.047,49.253 36.89,48.41 37.93,48.41C37.937,48.41 37.944,48.41 37.951,48.41C38.991,48.41 39.834,49.253 39.834,50.293C39.834,52.625 39.834,56.587 39.834,59.025C39.834,60.197 40.784,61.148 41.957,61.148L43.081,61.148C44.254,61.148 45.204,60.197 45.204,59.025L45.204,50.256C45.204,49.766 45.399,49.297 45.745,48.95C46.091,48.604 46.561,48.41 47.05,48.41C47.051,48.41 47.051,48.41 47.051,48.41C48.07,48.41 48.896,49.235 48.897,50.254C48.898,51.426 48.9,52.956 48.902,54.217C48.903,55.561 49.915,56.689 51.251,56.836C51.31,56.843 51.37,56.85 51.43,56.856C52.176,56.938 52.921,56.699 53.48,56.199C54.039,55.698 54.358,54.983 54.357,54.233C54.356,50.176 54.353,43.366 54.353,43.366L30.068,43.366Z" style="fill:rgb(250,221,190);stroke:rgb(225,228,222);stroke-width:2px;"/>
        </g>
    </g>
</svg>
