<?xml version="1.0" encoding="UTF-8" standalone="no"?>
<!DOCTYPE svg PUBLIC "-//W3C//DTD SVG 1.1//EN" "http://www.w3.org/Graphics/SVG/1.1/DTD/svg11.dtd">
<svg width="100%" height="100%" viewBox="0 0 100 100" version="1.1" xmlns="http://www.w3.org/2000/svg" xmlns:xlink="http://www.w3.org/1999/xlink" xml:space="preserve" xmlns:serif="http://www.serif.com/" style="fill-rule:evenodd;clip-rule:evenodd;stroke-linecap:round;stroke-linejoin:round;stroke-miterlimit:1.5;">
    <g>
        <g>
            <path d="M80.372,36.744C80.904,36.419 81.57,36.408 82.113,36.713C82.656,37.018 82.993,37.593 82.993,38.216C82.993,43.832 82.993,55.726 82.993,61.623C82.993,62.321 82.614,62.964 82.003,63.303C81.393,63.641 80.647,63.622 80.055,63.252C75.444,60.373 67.03,55.118 67.03,55.118C61.389,62.239 53.903,65.424 45.093,65.784C35.177,65.581 26.775,63.43 20.969,57.941C35.472,58.373 50.246,54.472 66.212,45.367C66.212,45.367 75.653,39.618 80.372,36.744Z" style="fill:rgb(0,135,153);"/>
            <g transform="matrix(0.99146,0.130414,-0.0886804,0.674184,12.5208,12.2573)">
                <path d="M41.482,60.4C42.85,55.794 41.49,39.081 39.102,35.148" style="fill:none;stroke:rgb(164,197,224);stroke-opacity:0.82;stroke-width:4.68px;"/>
            </g>
        </g>
        <g transform="matrix(0.20661,0.978423,-0.66532,0.140493,76.9386,14.1661)">
            <path d="M41.482,60.4C42.85,55.794 41.49,39.081 39.102,35.148" style="fill:none;stroke:rgb(164,197,224);stroke-width:4.68px;"/>
        </g>
        <g>
            <path d="M82.993,42.844L82.993,38.588C82.993,37.957 82.65,37.375 82.098,37.069C81.547,36.762 80.872,36.779 80.336,37.112C75.745,39.97 66.813,45.53 66.813,45.53C61.341,39.034 55.452,34.7 43.246,34.592C26.565,34.445 17.375,43.447 17.007,50C16.688,55.701 24.936,65.233 43.198,65.767C53.212,66.06 61.66,62.426 66.772,54.677C66.772,54.677 75.194,60.046 79.901,63.047C80.52,63.442 81.305,63.467 81.949,63.114C82.592,62.761 82.993,62.086 82.993,61.351C82.993,58.448 82.993,54.879 82.993,54.879" style="fill:none;stroke:rgb(225,228,222);stroke-width:2px;"/>
            <path d="M41.482,60.4C44.395,50.593 43.605,42.563 39.102,35.148" style="fill:none;stroke:rgb(225,228,222);stroke-width:2px;"/>
            <g transform="matrix(1,0,0,1,0.698459,0)">
                <circle cx="31.339" cy="45.367" r="2.128" style="fill:rgb(225,228,222);"/>
            </g>
        </g>
    </g>
</svg>
