<?xml version="1.0" encoding="UTF-8" standalone="no"?>
<!DOCTYPE svg PUBLIC "-//W3C//DTD SVG 1.1//EN" "http://www.w3.org/Graphics/SVG/1.1/DTD/svg11.dtd">
<svg width="100%" height="100%" viewBox="0 0 25 25" version="1.1" xmlns="http://www.w3.org/2000/svg" xmlns:xlink="http://www.w3.org/1999/xlink" xml:space="preserve" xmlns:serif="http://www.serif.com/" style="fill-rule:evenodd;clip-rule:evenodd;stroke-linejoin:round;stroke-miterlimit:2;">
    <g transform="matrix(0.0891209,6.93889e-18,-6.93889e-18,0.0891209,-33.0686,-9.77897)">
        <path d="M453.755,310.115C453.755,310.115 467.408,330.385 507.916,333.08C534.703,334.862 545.04,326.197 556.669,325.46C567.178,324.793 577.743,329.568 577.743,329.568C577.743,329.568 562.144,326.634 539.299,337.847C522.711,345.988 491.301,342.44 476.336,333.849C455.646,321.97 453.755,310.115 453.755,310.115ZM568.848,270.962C568.848,270.962 571.124,306.701 571.767,316.791C571.862,318.284 570.781,319.594 569.297,319.784C554.302,321.734 543.999,320.914 528.659,315.126C510.03,308.097 515.745,307.117 496.865,303.602C484.145,301.234 477.356,304.105 470.574,307.39C469.928,307.702 469.218,307.862 468.5,307.858C465.741,307.842 458.456,307.8 454.598,307.778C453.942,307.774 453.314,307.509 452.854,307.042C452.393,306.574 452.137,305.943 452.143,305.286C452.214,296.873 452.444,269.913 452.444,269.913C418.648,264.745 396.945,249.371 396.028,216.454C400.779,175.266 427.598,165.019 471.219,178.327C496.439,140.295 565.869,155.201 554.084,216.873L552.072,215.111C557.621,147.293 479.606,158.26 477.737,190.413C392.433,154.755 380.629,255.133 463.922,260.047C463.922,260.047 463.555,286.232 463.424,295.557C463.414,296.284 463.761,296.97 464.353,297.393C464.945,297.816 465.706,297.922 466.391,297.676C474.771,294.747 483.403,293.657 492.174,293.598C513.739,293.453 536.157,312.339 550.143,313.843C550.143,313.843 558.689,314.248 563.264,314.465C563.999,314.5 564.717,314.233 565.25,313.726C565.784,313.22 566.088,312.518 566.092,311.782C566.145,301.92 566.319,269.535 566.319,269.535L568.848,270.962ZM473.689,253.277C491.776,246.243 512.593,249.482 535.563,259.038C573.994,271.13 601.812,267.508 616.372,250C634.011,231.248 628.128,202.919 604.118,192.305C584.408,183.592 569.422,192.983 558.501,207.784C575.281,196.004 590.746,191.611 603.315,203.472C618.009,219.669 619.352,233.563 604.294,244.625C588.116,256.473 564.071,258.432 529.069,246.62C501.491,241.205 482.742,243.182 473.689,253.277Z" style="fill:white;"/>
    </g>
</svg>
