<?xml version="1.0" encoding="UTF-8" standalone="no"?>
<!DOCTYPE svg PUBLIC "-//W3C//DTD SVG 1.1//EN" "http://www.w3.org/Graphics/SVG/1.1/DTD/svg11.dtd">
<svg width="100%" height="100%" viewBox="0 0 25 25" version="1.1" xmlns="http://www.w3.org/2000/svg" xmlns:xlink="http://www.w3.org/1999/xlink" xml:space="preserve" xmlns:serif="http://www.serif.com/" style="fill-rule:evenodd;clip-rule:evenodd;stroke-linejoin:round;stroke-miterlimit:2;">
    <g transform="matrix(-1,0,0,1,24.4934,-0.0166188)">
        <path d="M8.21,18.021C9.255,18.021 10.104,18.871 10.104,19.916C10.104,20.962 9.255,21.811 8.21,21.811C7.164,21.811 6.315,20.962 6.315,19.916C6.315,18.871 7.164,18.021 8.21,18.021ZM17.539,18.021C18.585,18.021 19.434,18.871 19.434,19.916C19.434,20.962 18.585,21.811 17.539,21.811C16.493,21.811 15.644,20.962 15.644,19.916C15.644,18.871 16.493,18.021 17.539,18.021ZM20.482,5.1C20.929,5.103 21.291,5.466 21.291,5.913C21.291,6.081 21.24,6.238 21.152,6.367C21.152,6.367 18.675,10.772 17.631,12.628C17.35,13.127 16.822,13.436 16.249,13.436C14.182,13.436 9.381,13.436 9.381,13.436L8.533,14.941C8.498,15.005 8.498,15.082 8.535,15.144C8.571,15.207 8.638,15.245 8.711,15.245L19.434,15.245L19.434,17.123L8.061,17.123C7.598,17.123 7.154,16.939 6.826,16.611C6.499,16.284 6.315,15.84 6.315,15.376C6.315,15.365 6.315,15.354 6.315,15.343C6.315,15.008 6.4,14.678 6.563,14.385L7.869,12.035L4.578,5.1L2.696,5.1L2.696,3.222L5.795,3.222L5.795,3.225L6.685,5.1L20.482,5.1Z" style="fill:white;"/>
    </g>
</svg>
