<?xml version="1.0" encoding="UTF-8" standalone="no"?>
<!DOCTYPE svg PUBLIC "-//W3C//DTD SVG 1.1//EN" "http://www.w3.org/Graphics/SVG/1.1/DTD/svg11.dtd">
<svg width="100%" height="100%" viewBox="0 0 25 25" version="1.1" xmlns="http://www.w3.org/2000/svg" xmlns:xlink="http://www.w3.org/1999/xlink" xml:space="preserve" xmlns:serif="http://www.serif.com/" style="fill-rule:evenodd;clip-rule:evenodd;stroke-linejoin:round;stroke-miterlimit:2;">
    <g transform="matrix(0.176245,0,0,0.176245,-14.4626,-45.9456)">
        <g>
            <path d="M129.013,318.854L129.013,291.191C129.013,286.834 132.55,283.297 136.907,283.297L159.6,283.297C159.917,277.832 164.456,273.491 170,273.491C175.544,273.491 180.083,277.832 180.4,283.297L202.448,283.297C206.805,283.297 210.342,286.834 210.342,291.191L210.342,375.818C210.342,380.175 206.805,383.713 202.448,383.713L147.806,383.713C149.735,381.932 151.13,380.039 152.112,378.115L198.045,378.115C201.777,378.115 204.807,375.085 204.807,371.353L204.807,295.657C204.807,291.925 201.777,288.895 198.045,288.895L193.916,288.895L193.916,293.885C193.916,295.448 192.648,296.716 191.085,296.716L148.745,296.716C147.182,296.716 145.914,295.448 145.914,293.885L145.914,288.895L141.31,288.895C137.578,288.895 134.548,291.925 134.548,295.657L134.548,314.503C132.249,315.721 130.437,317.215 129.013,318.854ZM175.928,283.297L164.072,283.297C164.378,280.295 166.917,277.949 170,277.949C173.083,277.949 175.622,280.295 175.928,283.297Z" style="fill:white;"/>
            <g transform="matrix(1,0,0,1,-1.39552,1.29609)">
                <path d="M198.73,311.491C198.73,310.528 197.948,309.746 196.985,309.746L145.806,309.746C144.843,309.746 144.061,310.528 144.061,311.491L144.061,314.981C144.061,315.944 144.843,316.725 145.806,316.725L196.985,316.725C197.948,316.725 198.73,315.944 198.73,314.981L198.73,311.491Z" style="fill:white;"/>
            </g>
            <path d="M142.665,333.256L142.665,329.766C142.665,328.803 143.447,328.022 144.41,328.022L195.59,328.022C196.553,328.022 197.335,328.803 197.335,329.766L197.335,333.256C197.335,334.219 196.553,335.001 195.59,335.001L149.07,335.001C146.933,334.004 144.745,333.48 142.665,333.256Z" style="fill:white;"/>
            <path d="M158.732,345.001L195.59,345.001C196.553,345.001 197.335,345.783 197.335,346.746L197.335,350.236C197.335,351.199 196.553,351.981 195.59,351.981L161.207,351.981C160.542,349.306 159.702,346.994 158.732,345.001Z" style="fill:white;"/>
        </g>
        <g>
            <path d="M113.95,335.983C119.256,335.932 123.451,337.568 126.217,341.368C129.684,337.399 134.268,336.231 139.512,336.717C153.259,337.99 156.962,346.038 156.414,357.486C155.829,369.709 151.399,374.54 147.235,380.17C145.312,382.769 143.175,384.888 140.81,386.495C137.947,388.382 134.58,389.359 131.151,389.298C129.052,389.837 124.34,389.754 121.441,389.703C117.745,389.64 114.164,388.414 111.204,386.201C108.733,383.615 106.383,380.755 103.697,377.685C98.703,371.975 96.745,365.763 95.819,357.866C94.286,344.788 101.973,337.363 113.95,335.983Z" style="fill:white;"/>
            <path d="M105.906,312.499C123.301,314.906 130.664,325.295 123.491,331.929C115.948,338.905 105.709,331.116 105.906,312.499Z" style="fill:white;"/>
            <path d="M124.988,338.193C124.121,327.832 128.463,322.064 135.646,317.557C138.411,315.822 140.888,319.243 138.633,320.553C132.701,323.997 128.866,329.15 128.677,337.246C128.636,338.999 125.121,339.787 124.988,338.193Z" style="fill:white;"/>
        </g>
    </g>
</svg>
