<?xml version="1.0" encoding="UTF-8" standalone="no"?>
<!DOCTYPE svg PUBLIC "-//W3C//DTD SVG 1.1//EN" "http://www.w3.org/Graphics/SVG/1.1/DTD/svg11.dtd">
<svg width="100%" height="100%" viewBox="0 0 100 100" version="1.1" xmlns="http://www.w3.org/2000/svg" xmlns:xlink="http://www.w3.org/1999/xlink" xml:space="preserve" xmlns:serif="http://www.serif.com/" style="fill-rule:evenodd;clip-rule:evenodd;stroke-linecap:round;stroke-linejoin:round;stroke-miterlimit:1.5;">
    <g>
        <g>
            <path d="M17.007,47.022C15.597,51.5 15.191,55.659 17.007,59.112C18.769,62.779 21.164,62.756 26.841,64.993C29.282,67.573 31.546,68.78 33.647,68.744C37.973,62.906 39.404,57.28 39.328,51.764L50,44.416L57.03,39.016C61.365,41.665 65.635,41.971 69.856,40.467C71.75,36.221 71.882,32.033 70.251,27.903C54.323,30.064 36.234,37.225 17.007,47.022Z" style="fill:rgb(20,130,42);"/>
            <path d="M18.945,44.416L22.253,33.177L29.344,29.601C31.751,24.957 35.667,22.842 40.566,22.376C45.525,19.481 51.017,20.019 56.861,22.83C63.914,22.336 68.34,24.998 71.383,29.321L20.929,45.831L18.945,44.416Z" style="fill:rgb(176,255,192);"/>
        </g>
        <g>
            <g>
                <path d="M40.299,22.745C50.669,32.344 56.302,30.028 57.331,22.887C55.472,29.177 54.891,34.914 56.566,39.674" style="fill:none;stroke:black;stroke-width:3px;"/>
                <path d="M28.559,30.182C28.835,30.936 29.131,31.666 29.451,32.367C31.428,36.644 35.551,39.528 40.247,39.916C43.983,40.203 47.025,41.305 48.761,42.469" style="fill:none;stroke:black;stroke-width:3px;"/>
                <path d="M38.173,59.112C33.53,53.651 27.567,48.61 18.945,44.416" style="fill:none;stroke:black;stroke-width:3px;"/>
                <path d="M35.131,66.076C34.545,66.998 33.614,67.645 32.546,67.873C31.477,68.1 30.363,67.889 29.452,67.285C28.977,66.951 28.533,66.585 28.135,66.175C27.173,65.188 25.847,64.642 24.47,64.665C19.98,64.698 12.388,58.235 16.294,51.126C16.676,50.425 16.867,49.635 16.847,48.836C16.742,47.412 17.414,46.492 18.448,45.624C18.988,45.158 19.256,44.452 19.163,43.746C18.343,37.502 20.792,32.901 27.699,30.544C28.458,30.284 29.08,29.731 29.427,29.008C31.445,24.807 34.81,22.644 39.684,22.763C40.302,22.779 40.906,22.585 41.399,22.211C45.19,19.425 51.143,19.358 54.25,22.155C54.755,22.636 55.447,22.869 56.141,22.793C70.167,21.283 75.518,32.082 69.415,40.495C69.269,40.697 69.058,40.844 68.818,40.912C65.272,41.916 61.902,41.779 58.739,40.306C57.582,39.774 56.218,40.005 55.3,40.886C53.982,42.206 52.381,42.795 50.569,42.832C49.474,42.865 48.471,43.454 47.907,44.393C46.016,47.495 43.612,49.991 40.558,51.72C39.634,52.226 39.054,53.191 39.039,54.245C38.924,58.523 37.471,62.424 35.131,66.076Z" style="fill:none;stroke:black;stroke-width:3px;"/>
            </g>
            <path d="M36.385,63.929C48.894,65.288 56.24,71.032 61.368,78.658L73.222,68.744C62.404,58.371 59.216,48.908 68.848,40.974C65.213,42.011 61.936,41.854 59.027,40.467L55.518,50L53.775,42.469C51.462,42.289 48.09,44.717 43.561,50L46.439,55.81L38.66,56.166C38.889,58.913 38.173,61.507 36.385,63.929Z" style="fill:none;stroke:black;stroke-width:3px;"/>
        </g>
    </g>
</svg>
