<?xml version="1.0" encoding="UTF-8" standalone="no"?>
<!DOCTYPE svg PUBLIC "-//W3C//DTD SVG 1.1//EN" "http://www.w3.org/Graphics/SVG/1.1/DTD/svg11.dtd">
<svg width="100%" height="100%" viewBox="0 0 100 100" version="1.1" xmlns="http://www.w3.org/2000/svg" xmlns:xlink="http://www.w3.org/1999/xlink" xml:space="preserve" xmlns:serif="http://www.serif.com/" style="fill-rule:evenodd;clip-rule:evenodd;stroke-linecap:round;stroke-linejoin:round;stroke-miterlimit:1.5;">
    <g>
        <path d="M33.338,47.296C25.435,54.379 21.678,60.966 22.035,68.574L48.242,68.574C37.628,62.461 34.28,55.087 33.338,47.296Z" style="fill:rgb(0,187,239);"/>
        <path d="M30.749,52.898C28.394,56.202 24.73,62.984 24.606,66.827" style="fill:none;stroke:rgb(0,200,255);stroke-width:3px;"/>
        <g>
            <path d="M15.936,68.79L84.064,68.574C82.504,72.942 79.373,76.577 75.994,76.761L21.974,76.817C18.578,76.582 17.075,73.007 15.936,68.79Z" style="fill:none;stroke:rgb(225,228,222);stroke-width:3px;"/>
            <circle cx="49.78" cy="37.442" r="4.319" style="fill:none;stroke:rgb(225,228,222);stroke-width:3px;"/>
            <g>
                <path d="M77.249,68.574C77.165,60.364 75.771,55.229 69.661,50" style="fill:none;stroke:rgb(225,228,222);stroke-width:3px;"/>
                <path d="M22.036,68.574C21.954,48.058 44.237,35.932 62.073,45.003" style="fill:none;stroke:rgb(225,228,222);stroke-width:3px;"/>
            </g>
            <g transform="matrix(0.808197,0,0,0.808197,-7.14966,4.70857)">
                <path d="M37.373,21.493C40.076,23.707 42.277,26.379 40.425,29.903L38.587,33.814C37.398,36.429 38.721,39.64 41.176,41.612" style="fill:none;stroke:rgb(225,228,222);stroke-width:3.71px;"/>
                <g transform="matrix(1,0,0,1,14.9745,0)">
                    <path d="M37.373,21.493C40.076,23.707 42.277,26.379 40.425,29.903L38.587,33.814C37.398,36.429 38.721,39.64 41.176,41.612" style="fill:none;stroke:rgb(225,228,222);stroke-width:3.71px;"/>
                </g>
            </g>
            <g transform="matrix(0.808197,0,0,0.808197,31.8684,4.70857)">
                <path d="M37.373,21.493C40.076,23.707 42.277,26.379 40.425,29.903L38.587,33.814C37.398,36.429 38.721,39.64 41.176,41.612" style="fill:none;stroke:rgb(225,228,222);stroke-width:3.71px;"/>
                <g transform="matrix(1,0,0,1,14.9745,0)">
                    <path d="M37.373,21.493C40.076,23.707 42.277,26.379 40.425,29.903L38.587,33.814C37.398,36.429 38.721,39.64 41.176,41.612" style="fill:none;stroke:rgb(225,228,222);stroke-width:3.71px;"/>
                </g>
            </g>
        </g>
    </g>
</svg>
