<?xml version="1.0" encoding="UTF-8" standalone="no"?>
<!DOCTYPE svg PUBLIC "-//W3C//DTD SVG 1.1//EN" "http://www.w3.org/Graphics/SVG/1.1/DTD/svg11.dtd">
<svg width="100%" height="100%" viewBox="0 0 100 100" version="1.1" xmlns="http://www.w3.org/2000/svg" xmlns:xlink="http://www.w3.org/1999/xlink" xml:space="preserve" xmlns:serif="http://www.serif.com/" style="fill-rule:evenodd;clip-rule:evenodd;stroke-linecap:round;stroke-linejoin:round;stroke-miterlimit:1.5;">
    <g transform="matrix(1.54862,0,0,1.54862,-27.1433,-22.1017)">
        <g>
            <path d="M51.473,31.395C52.945,38.957 50.364,46.881 46.641,53.756C49.192,52.158 52.285,49.714 55.564,49.046C59.868,48.17 64.062,46.563 68.17,44.381C70.824,41.366 71.29,38.531 70.063,35.835C68.081,34.025 65.629,32.867 62.704,32.368C58.88,31.835 54.985,30.598 51.473,31.395Z" style="fill:rgb(255,124,117);"/>
            <path d="M57.694,47.955C57.65,47.967 57.604,47.971 57.559,47.966C55.625,47.747 54.562,47.016 54.438,45.731C54.373,45.227 54.692,44.753 55.182,44.621C59.439,43.451 62.994,42.041 65.81,40.358C66.235,40.098 66.404,39.565 66.207,39.108C65.634,37.923 64.608,37.119 63.309,36.539C63.046,36.423 62.888,36.152 62.916,35.866C63.072,34.445 63.967,33.601 65.596,33.32C65.78,33.288 65.968,33.286 66.152,33.312C68.584,33.669 70.282,35.219 71.039,38.298C71.439,40.964 70.375,43.362 66.898,45.321C66.898,45.321 58.512,47.721 57.694,47.955Z" style="fill:rgb(181,95,92);"/>
        </g>
        <g>
            <path d="M46.451,31.397C32.693,31.308 27.298,36.486 28.947,45.717C30.018,51.714 34.186,54.324 40.305,54.801C45.756,55.226 48.829,52.738 51.655,50.475C52.8,49.578 54.165,49.004 55.608,48.815C61.338,48.016 69.421,45.452 70.681,41.058C72.789,33.708 65.515,31.207 50.749,31.406" style="fill:none;stroke:black;stroke-width:1.29px;"/>
            <path d="M28.659,43.122C28.065,51.658 29.164,58.071 33.348,60.617C38.089,62.57 43.343,62.369 46.554,60.395C49.255,58.734 51.926,57.211 54.693,56.366C62.266,54.736 71.039,51.259 71.039,47.216L71.039,38.298" style="fill:none;stroke:black;stroke-width:1.29px;"/>
            <path d="M28.659,43.745L33.661,43.122" style="fill:none;stroke:black;stroke-width:1.29px;"/>
            <path d="M47.947,40.536C53.351,38.986 59.372,38.295 67.313,38.298" style="fill:none;stroke:black;stroke-width:1.29px;"/>
            <path d="M50.915,39.95C55.465,41.772 60.179,43.729 60.454,47.973" style="fill:none;stroke:black;stroke-width:1.29px;"/>
            <g transform="matrix(1,0,0,1,0.848211,0.465137)">
                <circle cx="39.306" cy="40.071" r="3.891" style="fill:none;stroke:black;stroke-width:1.29px;"/>
            </g>
        </g>
    </g>
</svg>
