<?xml version="1.0" encoding="UTF-8" standalone="no"?>
<!DOCTYPE svg PUBLIC "-//W3C//DTD SVG 1.1//EN" "http://www.w3.org/Graphics/SVG/1.1/DTD/svg11.dtd">
<svg width="100%" height="100%" viewBox="0 0 100 100" version="1.1" xmlns="http://www.w3.org/2000/svg" xmlns:xlink="http://www.w3.org/1999/xlink" xml:space="preserve" xmlns:serif="http://www.serif.com/" style="fill-rule:evenodd;clip-rule:evenodd;stroke-linecap:round;stroke-linejoin:round;stroke-miterlimit:1.5;">
    <g>
        <g>
            <g>
                <path d="M55.265,49.159L71.259,49.159C71.834,60.599 68.213,69.612 56.396,73.886L44.165,73.886C53.647,65.833 57.707,60.248 55.265,49.159Z" style="fill:rgb(0,123,157);"/>
                <path d="M54.738,70.914C62.058,68.932 67.004,63.733 68.492,53.848" style="fill:none;stroke:rgb(0,102,130);stroke-width:3px;"/>
            </g>
            <g>
                <g>
                    <path d="M69.909,58.898L35.379,58.722" style="fill:none;stroke:rgb(225,228,222);stroke-width:3px;"/>
                    <path d="M30.053,49.322L25.455,49.268C25.193,62.264 28.68,67.748 33.426,70.71C36.751,72.786 40.591,73.886 44.51,73.886C47.081,73.886 50.607,73.886 53.103,73.886C55.648,73.886 58.153,73.243 60.383,72.016C69.427,67.006 71.028,58.434 71.259,49.206L34.183,49.159" style="fill:none;stroke:rgb(225,228,222);stroke-width:3px;"/>
                </g>
                <path d="M76.045,32.379L58.681,49.159" style="fill:none;stroke:rgb(225,228,222);stroke-width:3px;"/>
            </g>
        </g>
        <g>
            <path d="M30.346,47.904C29.61,46.144 29.12,45.539 30.903,42.863C33.527,41.488 35.627,42.061 37.478,43.567C36.517,41.758 36.511,39.877 38.987,37.808C41.434,37.07 42.911,37.856 43.999,39.251C44.309,36.208 45.914,34.53 49.124,34.542C51.377,35.194 52.095,36.685 52.182,38.518C54.503,36.503 56.324,35.908 57.762,36.404C60.334,37.719 60.786,39.884 60.034,42.533C62.14,40.746 64.224,40.913 66.292,42.396C67.269,44.723 67.022,46.43 66.316,47.904L30.346,47.904Z" style="fill:rgb(85,84,45);"/>
            <path d="M44.815,36.622L49.155,34.542L52.501,38.236L56.484,36.044L59.414,37.529L60.191,41.957L64.571,41.957L66.988,45.521L66.117,47.871L63.456,47.904L57.546,43.926L50.743,40.748L44.815,36.622Z" style="fill:rgb(226,68,58);"/>
            <g transform="matrix(1.02165,0,0,1.02963,-0.749493,-1.06784)">
                <path d="M34.896,47.492C34.31,46.705 34.708,45.799 35.415,45.066C36.024,44.433 37.004,44.509 37.952,44.765C38.106,44.803 38.27,44.757 38.383,44.646C38.496,44.534 38.541,44.371 38.503,44.218C38.015,42.312 38.456,40.824 39.785,39.734C40.981,38.803 42.32,38.806 44.005,39.102C44.447,36.684 45.798,35.817 47.818,36.094C49.875,36.375 50.799,37.768 51.501,39.428C51.798,40.111 52.567,40.461 53.282,40.237C54.173,39.932 55.17,40.008 56.238,40.353C56.67,40.494 57.033,40.789 57.256,41.182C57.398,41.607 57.522,41.993 57.738,42.4C58.042,43.04 58.711,43.43 59.423,43.381C61.295,43.321 62.402,43.867 63.034,44.919C63.46,45.629 64.332,46.733 63.731,47.38C63.637,47.468 63.511,47.517 63.381,47.517C61.388,47.558 34.896,47.492 34.896,47.492Z" style="fill:rgb(186,124,0);"/>
            </g>
            <path d="M30.186,47.904C27.656,42.642 34.741,40.008 37.445,43.578C34.895,39.357 41.106,34.728 44.238,39.227C44.136,32.863 51.999,33.288 52.474,38.656C55.326,34.04 61.719,36.194 59.933,42.477C63.783,38.903 69.186,43.705 66.048,47.882" style="fill:none;stroke:rgb(225,228,222);stroke-width:2px;"/>
        </g>
    </g>
</svg>
