<?xml version="1.0" encoding="UTF-8"?>
<!--Generator: Apple Native CoreSVG 232.5-->
<!DOCTYPE svg
PUBLIC "-//W3C//DTD SVG 1.1//EN"
       "http://www.w3.org/Graphics/SVG/1.1/DTD/svg11.dtd">
<svg version="1.1" xmlns="http://www.w3.org/2000/svg" xmlns:xlink="http://www.w3.org/1999/xlink" width="3300" height="2200">
 <!--glyph: "", point size: 100.0, font version: "19.2d2e1", template writer version: "128"-->
 <style>.monochrome-0 {-sfsymbols-motion-group:0}

.multicolor-0:tintColor {-sfsymbols-motion-group:0}

.hierarchical-0:primary {-sfsymbols-motion-group:0}

.SFSymbolsPreviewWireframe {fill:none;opacity:1.0;stroke:black;stroke-width:0.5}
</style>
 <g id="Notes">
  <rect height="2200" id="artboard" style="fill:white;opacity:1" width="3300" x="0" y="0"/>
  <line style="fill:none;stroke:black;opacity:1;stroke-width:0.5;" x1="263" x2="3036" y1="292" y2="292"/>
  <text style="stroke:none;fill:black;font-family:sans-serif;font-size:13;font-weight:bold;" transform="matrix(1 0 0 1 263 322)">Weight/Scale Variations</text>
  <text style="stroke:none;fill:black;font-family:sans-serif;font-size:13;text-anchor:middle;" transform="matrix(1 0 0 1 559.711 322)">Ultralight</text>
  <text style="stroke:none;fill:black;font-family:sans-serif;font-size:13;text-anchor:middle;" transform="matrix(1 0 0 1 856.422 322)">Thin</text>
  <text style="stroke:none;fill:black;font-family:sans-serif;font-size:13;text-anchor:middle;" transform="matrix(1 0 0 1 1153.13 322)">Light</text>
  <text style="stroke:none;fill:black;font-family:sans-serif;font-size:13;text-anchor:middle;" transform="matrix(1 0 0 1 1449.84 322)">Regular</text>
  <text style="stroke:none;fill:black;font-family:sans-serif;font-size:13;text-anchor:middle;" transform="matrix(1 0 0 1 1746.56 322)">Medium</text>
  <text style="stroke:none;fill:black;font-family:sans-serif;font-size:13;text-anchor:middle;" transform="matrix(1 0 0 1 2043.27 322)">Semibold</text>
  <text style="stroke:none;fill:black;font-family:sans-serif;font-size:13;text-anchor:middle;" transform="matrix(1 0 0 1 2339.98 322)">Bold</text>
  <text style="stroke:none;fill:black;font-family:sans-serif;font-size:13;text-anchor:middle;" transform="matrix(1 0 0 1 2636.69 322)">Heavy</text>
  <text style="stroke:none;fill:black;font-family:sans-serif;font-size:13;text-anchor:middle;" transform="matrix(1 0 0 1 2933.4 322)">Black</text>
  <line style="fill:none;stroke:black;opacity:1;stroke-width:0.5;" x1="263" x2="3036" y1="1903" y2="1903"/>
  <g transform="matrix(0.2 0 0 0.2 263 1933)">
   <path d="m46.2402 4.15039c21.5332 0 39.4531-17.8711 39.4531-39.4043s-17.9688-39.4043-39.502-39.4043c-21.4844 0-39.3555 17.8711-39.3555 39.4043s17.9199 39.4043 39.4043 39.4043Zm0-7.42188c-17.7246 0-31.8848-14.209-31.8848-31.9824s14.1113-31.9824 31.8359-31.9824c17.7734 0 32.0312 14.209 32.0312 31.9824s-14.209 31.9824-31.9824 31.9824Zm-17.9688-31.9824c0 2.14844 1.51367 3.61328 3.75977 3.61328h10.498v10.5957c0 2.19727 1.46484 3.71094 3.61328 3.71094 2.24609 0 3.71094-1.51367 3.71094-3.71094v-10.5957h10.5957c2.19727 0 3.71094-1.46484 3.71094-3.61328 0-2.19727-1.51367-3.71094-3.71094-3.71094h-10.5957v-10.5469c0-2.24609-1.46484-3.75977-3.71094-3.75977-2.14844 0-3.61328 1.51367-3.61328 3.75977v10.5469h-10.498c-2.24609 0-3.75977 1.51367-3.75977 3.71094Z"/>
  </g>
  <g transform="matrix(0.2 0 0 0.2 281.506 1933)">
   <path d="m58.5449 14.5508c27.2461 0 49.8047-22.6074 49.8047-49.8047 0-27.2461-22.6074-49.8047-49.8535-49.8047-27.1973 0-49.7559 22.5586-49.7559 49.8047 0 27.1973 22.6074 49.8047 49.8047 49.8047Zm0-8.30078c-23.0469 0-41.4551-18.457-41.4551-41.5039s18.3594-41.5039 41.4062-41.5039 41.5527 18.457 41.5527 41.5039-18.457 41.5039-41.5039 41.5039Zm-22.6562-41.5039c0 2.39258 1.66016 4.00391 4.15039 4.00391h14.3555v14.4043c0 2.44141 1.66016 4.15039 4.05273 4.15039 2.44141 0 4.15039-1.66016 4.15039-4.15039v-14.4043h14.4043c2.44141 0 4.15039-1.61133 4.15039-4.00391 0-2.44141-1.70898-4.15039-4.15039-4.15039h-14.4043v-14.3555c0-2.49023-1.70898-4.19922-4.15039-4.19922-2.39258 0-4.05273 1.70898-4.05273 4.19922v14.3555h-14.3555c-2.49023 0-4.15039 1.70898-4.15039 4.15039Z"/>
  </g>
  <g transform="matrix(0.2 0 0 0.2 304.924 1933)">
   <path d="m74.8535 28.3203c34.8145 0 63.623-28.8086 63.623-63.5742 0-34.8145-28.8574-63.623-63.6719-63.623-34.7656 0-63.5254 28.8086-63.5254 63.623 0 34.7656 28.8086 63.5742 63.5742 63.5742Zm0-9.08203c-30.1758 0-54.4434-24.3164-54.4434-54.4922 0-30.2246 24.2188-54.4922 54.3945-54.4922 30.2246 0 54.541 24.2676 54.541 54.4922 0 30.1758-24.2676 54.4922-54.4922 54.4922Zm-28.8574-54.4922c0 2.58789 1.85547 4.39453 4.58984 4.39453h19.7266v19.7754c0 2.68555 1.85547 4.58984 4.44336 4.58984 2.68555 0 4.54102-1.85547 4.54102-4.58984v-19.7754h19.7754c2.68555 0 4.58984-1.80664 4.58984-4.39453 0-2.73438-1.85547-4.58984-4.58984-4.58984h-19.7754v-19.7266c0-2.73438-1.85547-4.63867-4.54102-4.63867-2.58789 0-4.44336 1.9043-4.44336 4.63867v19.7266h-19.7266c-2.73438 0-4.58984 1.85547-4.58984 4.58984Z"/>
  </g>
  <text style="stroke:none;fill:black;font-family:sans-serif;font-size:13;font-weight:bold;" transform="matrix(1 0 0 1 263 1953)">Design Variations</text>
  <text style="stroke:none;fill:black;font-family:sans-serif;font-size:13;" transform="matrix(1 0 0 1 263 1971)">Symbols are supported in up to nine weights and three scales.</text>
  <text style="stroke:none;fill:black;font-family:sans-serif;font-size:13;" transform="matrix(1 0 0 1 263 1989)">For optimal layout with text and other symbols, vertically align</text>
  <text style="stroke:none;fill:black;font-family:sans-serif;font-size:13;" transform="matrix(1 0 0 1 263 2007)">symbols with the adjacent text.</text>
  <line style="fill:none;stroke:#00AEEF;stroke-width:0.5;opacity:1.0;" x1="776" x2="776" y1="1919" y2="1933"/>
  <g transform="matrix(0.2 0 0 0.2 776 1933)">
   <path d="m16.5527 0.78125c2.58789 0 3.85742-0.976562 4.78516-3.71094l6.29883-17.2363h28.8086l6.29883 17.2363c0.927734 2.73438 2.19727 3.71094 4.73633 3.71094 2.58789 0 4.24805-1.5625 4.24805-4.00391 0-0.830078-0.146484-1.61133-0.537109-2.63672l-22.9004-60.9863c-1.12305-2.97852-3.125-4.49219-6.25-4.49219-3.02734 0-5.07812 1.46484-6.15234 4.44336l-22.9004 61.084c-0.390625 1.02539-0.537109 1.80664-0.537109 2.63672 0 2.44141 1.5625 3.95508 4.10156 3.95508Zm13.4766-28.3691 11.8652-32.8613h0.244141l11.8652 32.8613Z"/>
  </g>
  <line style="fill:none;stroke:#00AEEF;stroke-width:0.5;opacity:1.0;" x1="792.836" x2="792.836" y1="1919" y2="1933"/>
  <text style="stroke:none;fill:black;font-family:sans-serif;font-size:13;font-weight:bold;" transform="matrix(1 0 0 1 776 1953)">Margins</text>
  <text style="stroke:none;fill:black;font-family:sans-serif;font-size:13;" transform="matrix(1 0 0 1 776 1971)">Leading and trailing margins on the left and right side of each symbol</text>
  <text style="stroke:none;fill:black;font-family:sans-serif;font-size:13;" transform="matrix(1 0 0 1 776 1989)">can be adjusted by modifying the x-location of the margin guidelines.</text>
  <text style="stroke:none;fill:black;font-family:sans-serif;font-size:13;" transform="matrix(1 0 0 1 776 2007)">Modifications are automatically applied proportionally to all</text>
  <text style="stroke:none;fill:black;font-family:sans-serif;font-size:13;" transform="matrix(1 0 0 1 776 2025)">scales and weights.</text>
  <g transform="matrix(0.2 0 0 0.2 1289 1933)">
   <path d="m14.209 9.32617 8.49609 8.54492c4.29688 4.3457 9.22852 4.05273 13.8672-1.07422l53.4668-58.9355-4.83398-4.88281-53.0762 58.3984c-1.75781 2.00195-3.41797 2.49023-5.76172 0.146484l-5.85938-5.81055c-2.34375-2.29492-1.80664-4.00391 0.195312-5.81055l57.373-54.0039-4.88281-4.83398-57.959 54.4434c-4.93164 4.58984-5.32227 9.47266-1.02539 13.8184Zm32.0801-90.9668c-2.09961 2.05078-2.24609 4.93164-1.07422 6.88477 1.17188 1.80664 3.4668 2.97852 6.68945 2.14844 7.32422-1.70898 14.9414-2.00195 22.0703 2.68555l-2.92969 7.27539c-1.70898 4.15039-0.830078 7.08008 1.85547 9.81445l11.4746 11.5723c2.44141 2.44141 4.49219 2.53906 7.32422 2.05078l5.32227-0.976562 3.32031 3.36914-0.195312 2.7832c-0.195312 2.49023 0.439453 4.39453 2.88086 6.78711l3.80859 3.71094c2.39258 2.39258 5.46875 2.53906 7.8125 0.195312l14.5508-14.5996c2.34375-2.34375 2.24609-5.32227-0.146484-7.71484l-3.85742-3.80859c-2.39258-2.39258-4.24805-3.17383-6.64062-2.97852l-2.88086 0.244141-3.22266-3.17383 1.2207-5.61523c0.634766-2.83203-0.146484-5.0293-3.07617-7.95898l-10.9863-10.9375c-16.6992-16.6016-38.8672-16.2109-53.3203-1.75781Zm7.4707 1.85547c12.1582-8.88672 28.6133-7.37305 39.7461 3.75977l12.1582 12.0605c1.17188 1.17188 1.36719 2.09961 1.02539 3.80859l-1.61133 7.42188 7.51953 7.42188 4.93164-0.292969c1.26953-0.0488281 1.66016 0.0488281 2.63672 1.02539l2.88086 2.88086-12.207 12.207-2.88086-2.88086c-0.976562-0.976562-1.12305-1.36719-1.07422-2.68555l0.341797-4.88281-7.4707-7.42188-7.61719 1.26953c-1.61133 0.341797-2.34375 0.195312-3.56445-0.976562l-10.0098-10.0098c-1.26953-1.17188-1.41602-2.00195-0.634766-3.85742l4.39453-10.4492c-7.8125-7.27539-17.9688-10.4004-28.125-7.42188-0.78125 0.195312-1.07422-0.439453-0.439453-0.976562Z"/>
  </g>
  <text style="stroke:none;fill:black;font-family:sans-serif;font-size:13;font-weight:bold;" transform="matrix(1 0 0 1 1289 1953)">Exporting</text>
  <text style="stroke:none;fill:black;font-family:sans-serif;font-size:13;" transform="matrix(1 0 0 1 1289 1971)">Symbols should be outlined when exporting to ensure the</text>
  <text style="stroke:none;fill:black;font-family:sans-serif;font-size:13;" transform="matrix(1 0 0 1 1289 1989)">design is preserved when submitting to Xcode.</text>
  <text id="template-version" style="stroke:none;fill:black;font-family:sans-serif;font-size:13;text-anchor:end;" transform="matrix(1 0 0 1 3036 1933)">Template v.5.0</text>
  <text style="stroke:none;fill:black;font-family:sans-serif;font-size:13;text-anchor:end;" transform="matrix(1 0 0 1 3036 1951)">Requires Xcode 15 or greater</text>
  <text id="descriptive-name" style="stroke:none;fill:black;font-family:sans-serif;font-size:13;text-anchor:end;" transform="matrix(1 0 0 1 3036 1969)">Generated from sugar</text>
  <text style="stroke:none;fill:black;font-family:sans-serif;font-size:13;text-anchor:end;" transform="matrix(1 0 0 1 3036 1987)">Typeset at 100.0 points</text>
  <text style="stroke:none;fill:black;font-family:sans-serif;font-size:13;" transform="matrix(1 0 0 1 263 726)">Small</text>
  <text style="stroke:none;fill:black;font-family:sans-serif;font-size:13;" transform="matrix(1 0 0 1 263 1156)">Medium</text>
  <text style="stroke:none;fill:black;font-family:sans-serif;font-size:13;" transform="matrix(1 0 0 1 263 1586)">Large</text>
 </g>
 <g id="Guides">
  <g id="H-reference" style="fill:#27AAE1;stroke:none;" transform="matrix(1 0 0 1 339 696)">
   <path d="M0.993654 0L3.63775 0L29.3281-67.1323L30.0303-67.1323L30.0303-70.459L28.1226-70.459ZM11.6885-24.4799L46.9815-24.4799L46.2315-26.7285L12.4385-26.7285ZM55.1196 0L57.7637 0L30.6382-70.459L29.4326-70.459L29.4326-67.1323Z"/>
  </g>
  <line id="Baseline-S" style="fill:none;stroke:#27AAE1;opacity:1;stroke-width:0.5;" x1="263" x2="3036" y1="696" y2="696"/>
  <line id="Capline-S" style="fill:none;stroke:#27AAE1;opacity:1;stroke-width:0.5;" x1="263" x2="3036" y1="625.541" y2="625.541"/>
  <g id="H-reference" style="fill:#27AAE1;stroke:none;" transform="matrix(1 0 0 1 339 1126)">
   <path d="M0.993654 0L3.63775 0L29.3281-67.1323L30.0303-67.1323L30.0303-70.459L28.1226-70.459ZM11.6885-24.4799L46.9815-24.4799L46.2315-26.7285L12.4385-26.7285ZM55.1196 0L57.7637 0L30.6382-70.459L29.4326-70.459L29.4326-67.1323Z"/>
  </g>
  <line id="Baseline-M" style="fill:none;stroke:#27AAE1;opacity:1;stroke-width:0.5;" x1="263" x2="3036" y1="1126" y2="1126"/>
  <line id="Capline-M" style="fill:none;stroke:#27AAE1;opacity:1;stroke-width:0.5;" x1="263" x2="3036" y1="1055.54" y2="1055.54"/>
  <g id="H-reference" style="fill:#27AAE1;stroke:none;" transform="matrix(1 0 0 1 339 1556)">
   <path d="M0.993654 0L3.63775 0L29.3281-67.1323L30.0303-67.1323L30.0303-70.459L28.1226-70.459ZM11.6885-24.4799L46.9815-24.4799L46.2315-26.7285L12.4385-26.7285ZM55.1196 0L57.7637 0L30.6382-70.459L29.4326-70.459L29.4326-67.1323Z"/>
  </g>
  <line id="Baseline-L" style="fill:none;stroke:#27AAE1;opacity:1;stroke-width:0.5;" x1="263" x2="3036" y1="1556" y2="1556"/>
  <line id="Capline-L" style="fill:none;stroke:#27AAE1;opacity:1;stroke-width:0.5;" x1="263" x2="3036" y1="1485.54" y2="1485.54"/>
  <line id="left-margin-Ultralight-S" style="fill:none;stroke:#00AEEF;stroke-width:0.5;opacity:1.0;" x1="511.434" x2="511.434" y1="600.785" y2="720.121"/>
  <line id="right-margin-Ultralight-S" style="fill:none;stroke:#00AEEF;stroke-width:0.5;opacity:1.0;" x1="607.988" x2="607.988" y1="600.785" y2="720.121"/>
  <line id="left-margin-Regular-S" style="fill:none;stroke:#00AEEF;stroke-width:0.5;opacity:1.0;" x1="1399.16" x2="1399.16" y1="600.785" y2="720.121"/>
  <line id="right-margin-Regular-S" style="fill:none;stroke:#00AEEF;stroke-width:0.5;opacity:1.0;" x1="1500.53" x2="1500.53" y1="600.785" y2="720.121"/>
  <line id="left-margin-Black-S" style="fill:none;stroke:#00AEEF;stroke-width:0.5;opacity:1.0;" x1="2877.44" x2="2877.44" y1="600.785" y2="720.121"/>
  <line id="right-margin-Black-S" style="fill:none;stroke:#00AEEF;stroke-width:0.5;opacity:1.0;" x1="2989.36" x2="2989.36" y1="600.785" y2="720.121"/>
 </g>
 <g id="Symbols">
  <g id="Black-S" transform="matrix(1 0 0 1 2877.44 696)">
   <path class="monochrome-0 multicolor-0:tintColor hierarchical-0:primary SFSymbolsPreviewWireframe" d="M40.8209-31.6458L35.3825-20.639L50.084 1.24932L62.3432-22.2768L55.4019-29.2711C55.4019-29.2711 44.082-29.2855 42.2564-29.2855C42.107-29.2855 41.9673-29.3722 41.8999-29.5071C41.6061-30.0948 40.8209-31.6458 40.8209-31.6458ZM60.8066-29.2711L68.3499-29.2614L77.9454-18.8616L72.112 6.7455L58.557-6.62644C58.557-6.62644 65.8788-20.7546 66.9289-22.7778C67.0012-22.9175 66.9723-23.0957 66.8615-23.2065C65.8114-24.2566 60.8066-29.2711 60.8066-29.2711ZM75.8789 7.57402L100.85-0.128335L107.131-25.7788L81.7122-18.0571L75.8789 7.57402ZM84.246-46.0101L88.326-47.6045L106.154-29.4975L80.5514-21.7132L73.5137-29.3337L74.7084-30.2056L84.246-46.0101ZM59.8383-51.8964L83.3115-51.9012L71.9675-33.1198L46.8951-33.1295L59.8383-51.8964ZM45.0454-75.0661L32.8247-53.7558L43.3932-34.8395L56.558-53.9147L45.0454-75.0661ZM48.3402-77.0218L59.9443-55.7596L83.509-55.75L72.1457-77.017L48.3402-77.0218ZM51.5869 6.72141C51.4905 6.90446 51.3026 7.02006 51.0955 7.02488C47.7477 7.10195 20.4306 7.73298 17.5356 7.80041C17.3815 7.80523 17.237 7.72816 17.1599 7.5981C15.6763 5.20888 2.0683-16.718 0.440157-19.3481C0.343818-19.507 0.334184-19.7045 0.416073-19.8731C1.81781-22.667 13.6194-46.2076 15.0163-48.9966C15.0982-49.1604 15.2716-49.2615 15.4547-49.2615C17.6368-49.2519 30.9172-49.1748 30.9172-49.1748C30.9172-49.1748 29.0193-52.7394 28.4942-53.7317C28.4075-53.8906 28.4124-54.0785 28.5039-54.2327C29.9923-56.7953 42.4779-78.3031 43.87-80.6971C43.9471-80.8272 44.0916-80.9091 44.2458-80.9091C46.9866-80.9139 71.3654-80.9187 74.1929-80.9187C74.3567-80.9187 74.506-80.832 74.5831-80.6875C75.9319-78.1634 87.6757-56.2221 88.9088-53.9196C88.9714-53.7991 88.9714-53.6498 88.8992-53.5342C88.5764-52.9899 87.666-51.4629 87.666-51.4629L89.2845-52.0746C89.2845-52.0746 109.448-31.7422 111.712-29.4589C111.838-29.3289 111.891-29.141 111.847-28.9676C111.13-25.9859 104.988-0.523328 104.251 2.54027C104.203 2.72332 104.063 2.87264 103.88 2.93045C100.869 3.86494 75.797 11.6636 72.8683 12.574C72.6949 12.627 72.507 12.5837 72.3818 12.4536C70.5128 10.6135 56.7266-2.97999 56.7266-2.97999C56.7266-2.97999 52.4635 5.06437 51.5869 6.72141ZM5.9556-17.9126L32.1118-18.7989L46.8229 3.29172L19.5828 3.77824L5.9556-17.9126ZM5.9556-21.8192L31.9239-22.5562L38.4847-35.6825L33.1041-45.355L17.4393-45.3261L5.9556-21.8192Z"/>
  </g>
  <g id="Regular-S" transform="matrix(1 0 0 1 1399.16 696)">
   <path class="monochrome-0 multicolor-0:tintColor hierarchical-0:primary SFSymbolsPreviewWireframe" d="M36.9182-31.446L32.0816-21.6571L45.1563-2.19066L56.0591-23.1137L49.8859-29.334C49.8859-29.334 39.9299-29.3469 38.2248-29.3469C38.0706-29.3469 37.9335-29.4326 37.865-29.5696C37.5951-30.1051 36.9182-31.446 36.9182-31.446ZM54.6925-29.334L61.4012-29.3255L69.9349-20.0763L64.747 2.69737L52.6919-9.19499C52.6919-9.19499 59.1393-21.64 60.1203-23.5335C60.1974-23.6749 60.1674-23.8505 60.0561-23.9619C59.0793-24.9429 54.6925-29.334 54.6925-29.334ZM68.0971 3.43422L90.3053-3.41588L95.8916-26.2281L73.285-19.3609L68.0971 3.43422ZM75.5384-44.2209L79.1669-45.6389L95.022-29.5354L72.2526-22.6124L65.9937-29.3897L67.0561-30.1651L75.5384-44.2209ZM53.8314-49.4559L74.7073-49.4602L64.6185-32.7569L42.3203-32.7655L53.8314-49.4559ZM40.6753-70.0619L29.8068-51.1095L39.2059-34.2863L50.914-51.2509L40.6753-70.0619ZM43.6055-71.8012L53.9257-52.8917L74.883-52.8831L64.777-71.7969L43.6055-71.8012ZM46.5101 2.64168C46.4116 2.82589 46.2231 2.94156 46.0174 2.94584C42.8944 3.01867 18.9383 3.57559 16.2394 3.63556C16.0852 3.63985 15.9395 3.56274 15.8581 3.42993C14.4744 1.20226 2.5435-18.0286 1.02268-20.479C0.924147-20.6375 0.915579-20.8389 1.00126-21.0059C2.30788-23.6106 12.6494-44.2423 13.956-46.847C14.0374-47.0098 14.2088-47.1126 14.393-47.1126C16.4279-47.0997 28.1103-47.0355 28.1103-47.0355C28.1103-47.0355 26.4567-50.1371 25.9684-51.0581C25.8827-51.2166 25.887-51.4094 25.9769-51.5636C27.3692-53.9541 38.3191-72.808 39.6171-75.0442C39.6943-75.177 39.8356-75.2584 39.9941-75.2584C42.5517-75.2627 63.9288-75.267 66.5677-75.267C66.7305-75.267 66.8805-75.177 66.9576-75.0313C68.2171-72.6794 78.5201-53.4272 79.6725-51.2766C79.7367-51.1567 79.7367-51.0067 79.6639-50.8911C79.364-50.3898 78.58-49.0704 78.58-49.0704L80.0195-49.6144C80.0195-49.6144 97.8194-31.6645 99.94-29.5225C100.069-29.394 100.12-29.2055 100.081-29.0299C99.4088-26.2496 94.0238-3.93425 93.3384-1.07683C93.2913-0.892614 93.1499-0.742674 92.97-0.682698C90.1597 0.186952 68.1828 7.01992 65.4496 7.87243C65.2782 7.92384 65.0897 7.881 64.9612 7.75248C63.2176 6.03031 51.064-5.95201 51.064-5.95201C51.064-5.95201 47.3283 1.09944 46.5101 2.64168ZM5.91071-19.2324L29.1728-20.0206L42.2561-0.374251L18.0301 0.0584322L5.91071-19.2324ZM5.91071-22.7067L29.0057-23.3621L34.8405-35.036L30.0553-43.6383L16.1237-43.6126L5.91071-22.7067Z"/>
  </g>
  <g id="Ultralight-S" transform="matrix(1 0 0 1 511.434 696)">
   <path class="monochrome-0 multicolor-0:tintColor hierarchical-0:primary SFSymbolsPreviewWireframe" d="M37.2051-31.0336L32.7422-22.001L44.8067-4.03873L54.867-23.345L49.1707-29.0848C49.1707-29.0848 40.0552-29.0966 38.4305-29.0966C38.2764-29.0966 38.138-29.1836 38.0708-29.318C37.8139-29.824 37.2051-31.0336 37.2051-31.0336ZM53.606-29.0848L59.7963-29.0768L67.6706-20.5424L62.8836 0.471605L51.7599-10.5018C51.7599-10.5018 57.6696-21.9022 58.6065-23.7127C58.6816-23.855 58.6539-24.0289 58.5393-24.1435C57.6103-25.0764 53.606-29.0848 53.606-29.0848ZM65.9748 1.15152L86.467-5.16928L91.6217-26.2188L70.7619-19.8822L65.9748 1.15152ZM72.8411-42.8213L76.1893-44.1298L90.8192-29.2705L69.8092-22.8825L64.0339-29.1361L65.0142-29.8516L72.8411-42.8213ZM52.8114-47.6519L72.0743-47.6558L62.765-32.2432L42.1898-32.2511L52.8114-47.6519ZM40.6719-66.6656L30.6432-49.1777L39.316-33.6544L50.1195-49.3081L40.6719-66.6656ZM43.3757-68.2705L52.8984-50.8221L72.2363-50.8142L62.9113-68.2666L43.3757-68.2705ZM46.0677 0.396499C45.9688 0.582288 45.783 0.696924 45.5775 0.700877C42.597 0.772031 20.7173 1.27801 18.1399 1.33731C17.9897 1.34126 17.8435 1.2622 17.7644 1.13175C16.4441-0.994947 5.54577-18.554 4.09503-20.8942C3.9962-21.0523 3.9883-21.2539 4.07131-21.4199C5.31649-23.9064 14.7601-42.7423 16.0053-45.2208C16.0883-45.3868 16.2583-45.4896 16.4402-45.4896C18.385-45.4777 29.0778-45.4184 29.0778-45.4184C29.0778-45.4184 27.5757-48.2369 27.1132-49.1105C27.0262-49.2686 27.0302-49.4623 27.1211-49.6165C28.4453-51.8973 38.4463-69.1125 39.6836-71.2471C39.7627-71.3815 39.905-71.4606 40.0591-71.4606C42.5021-71.4645 62.0258-71.4685 64.5438-71.4685C64.7059-71.4685 64.8561-71.3776 64.9352-71.2353C66.1369-68.99 75.5489-51.3993 76.6478-49.3477C76.715-49.2251 76.7111-49.0789 76.6399-48.9603C76.3553-48.4899 75.6477-47.2961 75.6477-47.2961L76.9759-47.7981C76.9759-47.7981 93.3136-31.3221 95.3414-29.2745C95.4719-29.144 95.5233-28.9583 95.4798-28.7843C94.8394-26.1319 89.9259-5.75828 89.2697-3.03468C89.2262-2.84889 89.0839-2.69868 88.902-2.64334C86.2219-1.80926 66.1606 4.42853 63.5516 5.23889C63.3817 5.29423 63.1959 5.24679 63.0654 5.1203C61.3973 3.47586 50.2578-7.50944 50.2578-7.50944C50.2578-7.50944 46.8464-1.07005 46.0677 0.396499ZM8.59351-19.7636L30.0581-20.491L42.1305-2.36267L19.7765-1.96342L8.59351-19.7636ZM8.59351-22.9695L29.904-23.5743L35.2879-34.3462L30.8724-42.2837L18.0174-42.26L8.59351-22.9695Z"/>
  </g>
 </g>
</svg>
