<?xml version="1.0" encoding="UTF-8" standalone="no"?>
<!DOCTYPE svg PUBLIC "-//W3C//DTD SVG 1.1//EN" "http://www.w3.org/Graphics/SVG/1.1/DTD/svg11.dtd">
<svg width="100%" height="100%" viewBox="0 0 100 100" version="1.1" xmlns="http://www.w3.org/2000/svg" xmlns:xlink="http://www.w3.org/1999/xlink" xml:space="preserve" xmlns:serif="http://www.serif.com/" style="fill-rule:evenodd;clip-rule:evenodd;stroke-linecap:round;stroke-linejoin:round;stroke-miterlimit:1.5;">
    <g>
        <path d="M35.793,75.068C34.193,71.636 33.491,67.56 34.948,61.932C34.44,56.367 35.515,51.929 37.979,48.478C39.514,42.404 43.887,37.897 51.066,34.941C53.494,31.603 57.603,30.197 63.684,31.058C69.633,30.367 73.696,32.131 76.504,35.528L66.439,38.105L57.603,43.786L56.011,51.666C53.097,54.3 50.213,55.779 47.375,55.508L45.446,59.715L40.759,63.609C40.07,69.404 39.116,74.658 35.793,75.068" style="fill:rgb(244,164,96);"/>
        <path d="M38.536,73.886C36.274,67.276 37.225,59.668 46.868,49.358C57.015,39.634 64.541,35.851 70.139,36.436L57.852,45.051L52.911,53.923L46.868,55.508L44.084,61.491L40.759,63.609L38.536,73.886Z" style="fill:rgb(189,97,19);"/>
        <g>
            <path d="M29.138,58.359C29.6,64.741 30.008,71.149 36.198,74.742C40.156,76.707 40.121,69.375 40.759,63.609" style="fill:none;stroke:black;stroke-width:3px;"/>
            <path d="M61.586,26.297C70.646,26.717 78.462,31.674 77.521,34.133C76.775,36.084 72.618,38.387 65.922,38.077" style="fill:none;stroke:black;stroke-width:3px;"/>
            <path d="M56.424,50.611C58.175,48.263 58.328,45.087 56.813,42.58C53.945,37.86 50.707,33.546 47.057,29.69C44.406,26.956 40.123,26.657 37.117,28.995C35.412,30.384 33.811,31.854 32.326,33.427C30.953,34.903 30.231,36.869 30.325,38.883C30.419,40.896 31.32,42.787 32.825,44.128C36.84,47.763 41.019,51.095 45.297,54.217C48.13,56.271 52.062,55.831 54.371,53.2C55.063,52.358 55.755,51.502 56.424,50.611Z" style="fill:none;stroke:black;stroke-width:3px;"/>
            <path d="M44.084,27.422C47.063,25.419 51.046,24.516 55.691,24.34C58.493,24.217 61.131,25.666 62.529,28.098C63.732,30.263 64.737,32.415 65.556,34.566C66.511,37.154 65.546,40.059 63.232,41.56C61.274,42.85 59.246,43.738 57.114,43.934" style="fill:none;stroke:black;stroke-width:3px;"/>
            <g transform="matrix(-0.0344509,0.999406,0.999406,0.0344509,4.92765,-3.53794)">
                <path d="M44.084,27.422C47.063,25.419 51.046,24.516 55.691,24.34C58.493,24.217 61.131,25.666 62.529,28.098C63.732,30.263 64.737,32.415 65.556,34.566C66.511,37.154 65.546,40.059 63.232,41.56C61.274,42.85 59.246,43.738 57.114,43.934" style="fill:none;stroke:black;stroke-width:3px;"/>
            </g>
        </g>
    </g>
</svg>
