<?xml version="1.0" encoding="UTF-8" standalone="no"?>
<!DOCTYPE svg PUBLIC "-//W3C//DTD SVG 1.1//EN" "http://www.w3.org/Graphics/SVG/1.1/DTD/svg11.dtd">
<svg width="100%" height="100%" viewBox="0 0 100 100" version="1.1" xmlns="http://www.w3.org/2000/svg" xmlns:xlink="http://www.w3.org/1999/xlink" xml:space="preserve" xmlns:serif="http://www.serif.com/" style="fill-rule:evenodd;clip-rule:evenodd;stroke-linecap:round;stroke-linejoin:round;stroke-miterlimit:1.5;">
    <g>
        <g>
            <path d="M57.804,26.689L65.648,28.724L76.626,26.689L71.697,46.033L60.222,58.677L46.696,63.197L33.971,61.446L29.716,47.925C46.382,48.07 54.23,39.493 57.804,26.689Z" style="fill:rgb(104,176,27);"/>
            <path d="M41.095,60.15C53.037,61.772 64.423,54.802 70.839,40.681" style="fill:none;stroke:rgb(74,113,32);stroke-width:3px;"/>
        </g>
        <g>
            <path d="M39.095,30.901C31.82,36.643 26.335,45.834 32.168,59.523C41.841,65.854 55.678,63.72 64.1,55.301C70.735,48.669 76.046,40.473 76.626,26.689C70.197,28.33 67.152,28.954 60.57,27.389C54.933,26.048 48.24,27.22 44.246,29.243" style="fill:none;stroke:black;stroke-width:3px;"/>
            <path d="M23.4,76.859C25.429,64.364 34.629,54.475 47.809,46.033" style="fill:none;stroke:black;stroke-width:3px;"/>
        </g>
    </g>
</svg>
